<svg width="19" height="17" viewBox="0 0 19 17" fill="none" xmlns="http://www.w3.org/2000/svg">
<path d="M13.5697 0C12.567 0 11.6477 0.317733 10.8375 0.944393C10.0606 1.54518 9.54343 2.31038 9.23894 2.86681C8.93445 2.31035 8.41725 1.54518 7.64042 0.944393C6.83014 0.317733 5.91086 0 4.90819 0C2.11009 0 0 2.28869 0 5.32372C0 8.60261 2.63248 10.846 6.61771 14.2421C7.29447 14.8189 8.06155 15.4726 8.85884 16.1698C8.96394 16.2618 9.09891 16.3125 9.23894 16.3125C9.37897 16.3125 9.51394 16.2618 9.61903 16.1698C10.4164 15.4725 11.1834 14.8188 11.8606 14.2418C15.8454 10.846 18.4779 8.60261 18.4779 5.32372C18.4779 2.28869 16.3678 0 13.5697 0Z" fill="#FDCBFF"/>
</svg>
